Coordinates
version=1
nRows=54
nColumns=12
inDegrees=yes

Units are S.I. units (second, meters, Newtons, ...)
Angles are in degrees

endheader
time	SC_y	SC_z	SC_x	AC_y	AC_z	AC_x	GH_y	GH_z	GH_yy	EL_x	PS_y
       0.0              -23.85          1.846          37.94          32.68         -6.738          8.799          105.2          37.27         -117.8          17.72          111.3
   0.01745              -23.86          1.846          37.94          32.68         -6.737          8.795          105.2          37.27         -117.7          17.73          111.3
    0.0349              -23.86          1.847          37.95          32.68         -6.736          8.791          105.2          37.27         -117.7          17.74          111.3
   0.05234              -23.86          1.848          37.96          32.68         -6.735          8.786          105.1          37.27         -117.7          17.76          111.3
   0.06979              -23.87          1.849          37.97          32.68         -6.734          8.781          105.1          37.27         -117.6          17.77          111.3
   0.08724              -23.87           1.85          37.98          32.68         -6.733          8.776          105.1          37.27         -117.6          17.79          111.3
    0.1047              -23.87          1.852          37.98          32.68         -6.731          8.771          105.0          37.27         -117.5           17.8          111.3
    0.1221              -23.88          1.853          37.99          32.68          -6.73          8.765          105.0          37.27         -117.5          17.82          111.3
    0.1396              -23.88          1.854           38.0          32.68         -6.728          8.759          104.9          37.27         -117.4          17.84          111.2
     0.157              -23.89          1.856          38.02          32.68         -6.727          8.753          104.9          37.27         -117.4          17.86          111.2
    0.1745              -23.89          1.857          38.03          32.68         -6.725          8.745          104.8          37.27         -117.3          17.88          111.2
    0.1919               -23.9          1.859          38.04          32.68         -6.723          8.738          104.7          37.27         -117.2           17.9          111.2
    0.2094               -23.9          1.861          38.06          32.68         -6.721           8.73          104.7          37.27         -117.2          17.93          111.2
    0.2268              -23.91          1.863          38.07          32.68         -6.719          8.721          104.6          37.26         -117.1          17.96          111.1
    0.2443              -23.91          1.865          38.09          32.68         -6.717          8.711          104.5          37.26         -117.0          17.98          111.1
    0.2617              -23.92          1.867           38.1          32.68         -6.714          8.701          104.4          37.26         -116.9          18.02          111.1
    0.2792              -23.93          1.869          38.12          32.68         -6.711          8.689          104.3          37.26         -116.8          18.05          111.1
    0.2966              -23.94          1.872          38.15          32.68         -6.708          8.677          104.2          37.26         -116.7          18.09          111.0
    0.3141              -23.95          1.875          38.17          32.68         -6.705          8.663          104.1          37.26         -116.6          18.13          111.0
    0.3315              -23.96          1.878          38.19          32.68         -6.701          8.649          104.0          37.26         -116.5          18.18          111.0
     0.349              -23.97          1.882          38.22          32.68         -6.697          8.632          103.9          37.25         -116.3          18.23          110.9
    0.3664              -23.98          1.886          38.25          32.68         -6.693          8.614          103.7          37.25         -116.2          18.28          110.9
    0.3839              -23.99           1.89          38.29          32.68         -6.688          8.595          103.6          37.25         -116.0          18.34          110.8
    0.4013              -24.01          1.895          38.32          32.68         -6.683          8.573          103.4          37.25         -115.8          18.41          110.8
    0.4188              -24.02            1.9          38.36          32.68         -6.677          8.549          103.2          37.24         -115.6          18.48          110.7
    0.4362              -24.04          1.906          38.41          32.68          -6.67          8.521          102.9          37.24         -115.4          18.56          110.6
    0.4537              -24.06          1.912          38.46          32.68         -6.663          8.491          102.7          37.24         -115.1          18.66          110.5
    0.4711              -24.08           1.92          38.52          32.68         -6.654          8.457          102.4          37.23         -114.9          18.76          110.5
    0.4885              -24.11          1.928          38.59          32.68         -6.645          8.418          102.1          37.23         -114.5          18.88          110.4
     0.506              -24.14          1.938          38.66          32.68         -6.634          8.374          101.7          37.22         -114.1          19.01          110.2
    0.5234              -24.17          1.949          38.75          32.69         -6.622          8.324          101.3          37.22         -113.7          19.17          110.1
    0.5409              -24.21          1.961          38.84          32.69         -6.608          8.267          100.8          37.21         -113.2          19.34          110.0
    0.5583              -24.26          1.975          38.96          32.69         -6.592          8.201          100.3           37.2         -112.7          19.54          109.8
    0.5758              -24.31          1.992          39.09          32.69         -6.573          8.124          99.65          37.19         -112.0          19.78          109.6
    0.5932              -24.37          2.012          39.24          32.69         -6.551          8.033          98.91          37.18         -111.2          20.05          109.4
    0.6107              -24.44          2.035          39.43          32.69         -6.524          7.927          98.03          37.17         -110.3          20.38          109.1
    0.6281              -24.53          2.062          39.64          32.69         -6.494          7.801          96.98          37.16         -109.2          20.76          108.8
    0.6456              -24.63          2.095           39.9          32.69         -6.456          7.649          95.73          37.14         -108.0          21.23          108.4
     0.663              -24.75          2.135          40.21          32.69         -6.411          7.466          94.21          37.12         -106.4          21.78          107.9
    0.6805               -24.9          2.183          40.59          32.69         -6.357          7.242          92.36          37.09         -104.5          22.47          107.3
    0.6979              -25.09          2.243          41.06          32.69         -6.289          6.966          90.08          37.06         -102.1          23.31          106.6
    0.7154              -25.32          2.318          41.65           32.7         -6.204          6.622          87.23          37.02         -99.18          24.36          105.7
    0.7328              -25.61          2.412          42.39           32.7         -6.098          6.188          83.64          36.97         -95.48          25.69          104.6
    0.7503              -25.98          2.532          43.33           32.7         -5.963          5.637          79.07           36.9         -90.77          27.37          103.2
    0.7677              -26.46          2.685          44.54          32.71          -5.79          4.931          73.23          36.82         -84.75          29.52          101.3
    0.7852              -27.07          2.882          46.09          32.72         -5.568          4.025          65.74          36.71         -77.01          32.29          98.99
    0.8026              -27.85          3.133          48.06          32.72         -5.284          2.868          56.16          36.57         -67.13          35.82           96.0
    0.8201              -28.83          3.449          50.54          32.74         -4.927          1.413          44.12           36.4         -54.71          40.26          92.24
    0.8375              -30.03          3.833          53.57          32.75         -4.493        -0.3601          29.45          36.19         -39.57          45.67          87.65
     0.855              -31.41          4.279          57.08          32.76         -3.989         -2.415          12.45          35.95         -22.03          51.95          82.34
    0.8724              -32.91          4.762          60.88          32.78         -3.443          -4.64         -5.967          35.69         -3.029          58.74          76.58
    0.8899              -34.41          5.245          64.67           32.8         -2.897         -6.866         -24.38          35.43          15.97          65.53          70.83
    0.9073              -35.79          5.691          68.18          32.81         -2.394         -8.921         -41.39          35.18          33.52          71.81          65.51
    0.9248              -36.99          6.076          71.21          32.82         -1.959         -10.69         -56.06          34.97          48.65          77.22          60.93
